# xmcd
#
# Track frame offsets:
#	150
#	15772
#	27430
#	39405
#	52934
#	67710
#	77397
#	90614
#	105584
#	120385
#	142417
#	156597
#
# Disc length: 2244 seconds
#
# Revision: 1
# Processed by: cddbd v1.5.2PL0 Copyright (c) Steve Scherf et al.
# Submitted via: audiograbber 1.83.01
#
DISCID=8908c20c
DTITLE=Schünemann, Peter - Ich hör`so gern La Paloma
DYEAR=2004
DGENRE=Schlager
TTITLE0=Ich hör so gern La Paloma
TTITLE1=Es gibt nur eine Weser
TTITLE2=Ein weißes Schiff
TTITLE3=Wir heben die Gläser
TTITLE4=Der alte Raddampfer
TTITLE5=Kleine Möwe, flieg nach Helgoland
TTITLE6=Heimat im Norden
TTITLE7=Heimweh
TTITLE8=Jedes Schiff braucht seinen Hafen
TTITLE9=Ich träum von einem Hausboot auf der Weser
TTITLE10=Die kleine Schiffsstewardess
TTITLE11=Candle Light
EXTD=
EXTT0=
EXTT1=
EXTT2=
EXTT3=
EXTT4=
EXTT5=
EXTT6=
EXTT7=
EXTT8=
EXTT9=
EXTT10=
EXTT11=
PLAYORDER=
